<svg width="1200" height="134" viewBox="0 0 1200 134" fill="none" xmlns="http://www.w3.org/2000/svg">
<path d="M1191.53 0.841797H1197.6V82.4262H1191.53V0.841797ZM1194.78 103.985C1193.27 103.985 1192 103.515 1190.97 102.576C1189.93 101.636 1189.41 100.415 1189.41 98.9121C1189.41 97.597 1189.93 96.4698 1190.97 95.5304C1192 94.4971 1193.27 93.9804 1194.78 93.9804C1196.28 93.9804 1197.51 94.4971 1198.45 95.5304C1199.48 96.4698 1200 97.597 1200 98.9121C1200 100.415 1199.48 101.636 1198.45 102.576C1197.51 103.515 1196.28 103.985 1194.78 103.985Z" fill="#DBD700"/>
<path d="M1150.63 51.9933L1151.33 68.902L1150.49 66.7884C1151.71 63.4067 1153.64 60.4946 1156.27 58.0523C1158.91 55.6099 1161.82 53.7312 1165.02 52.416C1168.32 51.1009 1171.47 50.4434 1174.48 50.4434L1174.2 56.925C1169.96 56.925 1166.11 57.8644 1162.62 59.7431C1159.24 61.6219 1156.51 64.1582 1154.44 67.352C1152.46 70.452 1151.47 73.9746 1151.47 77.92V107.087H1144.84V51.9933H1150.63Z" fill="#DBD700"/>
<path d="M1100.05 108.213C1094.31 108.213 1089.23 106.945 1084.81 104.409C1080.39 101.873 1076.9 98.4438 1074.36 94.1227C1071.92 89.7077 1070.69 84.776 1070.69 79.3276C1070.69 73.9732 1072.01 69.0885 1074.65 64.6734C1077.28 60.2584 1080.81 56.7358 1085.23 54.1055C1089.75 51.4753 1094.74 50.1602 1100.19 50.1602C1106.78 50.1602 1112.29 52.0859 1116.71 55.9373C1121.22 59.7887 1124.47 64.8143 1126.45 71.0142L1078.17 89.6137L1076.2 84.8229L1120.38 67.6325L1118.97 69.6051C1117.37 65.8476 1114.92 62.6068 1111.63 59.8826C1108.43 57.1585 1104.47 55.7964 1099.77 55.7964C1095.54 55.7964 1091.72 56.8297 1088.34 58.8963C1084.95 60.9629 1082.22 63.7341 1080.15 67.2097C1078.17 70.6854 1077.19 74.6308 1077.19 79.0458C1077.19 83.179 1078.13 87.0305 1080.01 90.6001C1081.98 94.1697 1084.71 97.0348 1088.2 99.1953C1091.68 101.356 1095.68 102.436 1100.19 102.436C1103.2 102.436 1106.07 101.873 1108.8 100.745C1111.63 99.618 1114.12 98.162 1116.28 96.3772L1119.67 101.168C1117.04 103.235 1113.98 104.925 1110.5 106.241C1107.11 107.556 1103.63 108.213 1100.05 108.213Z" fill="#DBD700"/>
<path d="M1003.83 107.088V0H1010.32V66.6484L1009.9 64.253C1011.78 60.4016 1014.79 57.1607 1018.93 54.5305C1023.16 51.8063 1028.01 50.4442 1033.47 50.4442C1038.64 50.4442 1042.83 51.9942 1046.03 55.0941C1049.23 58.1001 1050.88 62.0455 1050.97 66.9302V107.088H1044.2V68.762C1044.1 65.1923 1042.97 62.2333 1040.81 59.8849C1038.64 57.5365 1035.49 56.3153 1031.35 56.2214C1027.68 56.2214 1024.25 57.1607 1021.05 59.0395C1017.85 60.9182 1015.26 63.4545 1013.28 66.6484C1011.4 69.8422 1010.46 73.4588 1010.46 77.4981V107.088H1003.83Z" fill="#DBD700"/>
<path d="M963.429 27.7554H970.205V52.6957H987.284V58.0501H970.205V107.085H963.429V58.0501H951.714V52.6957H963.429V27.7554Z" fill="#DBD700"/>
<path d="M913.138 108.213C907.398 108.213 902.316 106.945 897.893 104.409C893.471 101.873 889.989 98.4438 887.448 94.1227C885.002 89.7077 883.778 84.776 883.778 79.3276C883.778 73.9732 885.096 69.0885 887.731 64.6734C890.365 60.2584 893.894 56.7358 898.317 54.1055C902.834 51.4753 907.821 50.1602 913.279 50.1602C919.866 50.1602 925.371 52.0859 929.793 55.9373C934.31 59.7887 937.557 64.8143 939.533 71.0142L891.259 89.6137L889.283 84.8229L933.463 67.6325L932.052 69.6051C930.452 65.8476 928.006 62.6068 924.712 59.8826C921.513 57.1585 917.56 55.7964 912.855 55.7964C908.621 55.7964 904.81 56.8297 901.422 58.8963C898.035 60.9629 895.306 63.7341 893.235 67.2097C891.259 70.6854 890.271 74.6308 890.271 79.0458C890.271 83.179 891.212 87.0305 893.094 90.6001C895.07 94.1697 897.799 97.0348 901.281 99.1953C904.763 101.356 908.762 102.436 913.279 102.436C916.29 102.436 919.16 101.873 921.889 100.745C924.712 99.618 927.206 98.162 929.37 96.3772L932.758 101.168C930.123 103.235 927.065 104.925 923.583 106.241C920.195 107.556 916.713 108.213 913.138 108.213Z" fill="#DBD700"/>
<path d="M834.03 134C830.925 134 827.961 133.624 825.138 132.873C822.315 132.215 819.539 131.041 816.81 129.35C814.081 127.659 811.258 125.452 808.341 122.728L812.293 118.219C816.34 122.07 820.104 124.653 823.585 125.969C827.067 127.378 830.455 128.082 833.748 128.082C839.488 128.082 844.052 127.143 847.44 125.264C850.827 123.479 853.274 121.037 854.78 117.937C856.285 114.931 857.085 111.549 857.179 107.792L857.32 89.8967L858.873 91.5876C856.991 96.4723 853.603 100.465 848.71 103.565C843.911 106.665 838.453 108.214 832.337 108.214C827.161 108.214 822.409 106.946 818.08 104.41C813.846 101.78 810.458 98.3041 807.918 93.983C805.377 89.568 804.106 84.6832 804.106 79.3288C804.106 73.5986 805.424 68.573 808.059 64.2519C810.694 59.9308 814.269 56.5491 818.786 54.1067C823.303 51.5704 828.29 50.3022 833.748 50.3022C838.83 50.3022 843.629 51.6174 848.145 54.2476C852.756 56.8778 856.097 60.3535 858.167 64.6746L857.32 67.7745L858.026 51.9931H863.954V107.933C863.954 112.442 862.919 116.669 860.849 120.614C858.873 124.653 855.673 127.894 851.251 130.337C846.922 132.779 841.182 134 834.03 134ZM810.741 79.1879C810.741 83.509 811.776 87.4544 813.846 91.024C815.916 94.4997 818.692 97.3178 822.174 99.4783C825.75 101.545 829.702 102.578 834.03 102.578C838.171 102.578 841.935 101.686 845.322 99.901C848.71 98.0223 851.486 95.533 853.65 92.433C855.815 89.3331 857.038 85.9983 857.32 82.4287V74.2562C856.567 70.6866 855.062 67.5397 852.803 64.8155C850.639 62.0913 847.91 59.9308 844.617 58.3339C841.417 56.7369 837.889 55.9385 834.03 55.9385C829.702 55.9385 825.75 56.9248 822.174 58.8975C818.692 60.8702 815.916 63.5943 813.846 67.07C811.776 70.5457 810.741 74.585 810.741 79.1879Z" fill="#DBD700"/>
<path d="M730.911 79.1867C730.911 73.8323 732.181 68.9476 734.722 64.5325C737.357 60.1175 740.886 56.6418 745.309 54.1055C749.825 51.4753 754.86 50.1602 760.412 50.1602C766.058 50.1602 771.092 51.4753 775.515 54.1055C779.937 56.6418 783.419 60.1175 785.96 64.5325C788.501 68.9476 789.771 73.8323 789.771 79.1867C789.771 84.5411 788.501 89.4259 785.96 93.8409C783.419 98.2559 779.89 101.779 775.374 104.409C770.951 106.945 765.964 108.213 760.412 108.213C754.766 108.213 749.731 106.992 745.309 104.55C740.886 102.013 737.357 98.5847 734.722 94.2636C732.181 89.8486 730.911 84.8229 730.911 79.1867ZM737.545 79.3276C737.545 83.6487 738.533 87.5941 740.509 91.1637C742.58 94.6394 745.309 97.4105 748.696 99.4771C752.178 101.544 756.036 102.577 760.27 102.577C764.505 102.577 768.316 101.544 771.704 99.4771C775.185 97.4105 777.914 94.6394 779.89 91.1637C781.961 87.5941 782.996 83.6487 782.996 79.3276C782.996 75.0065 781.961 71.1081 779.89 67.6325C777.914 64.0628 775.185 61.2447 771.704 59.1781C768.316 57.0176 764.505 55.9373 760.27 55.9373C755.942 55.9373 752.037 57.0645 748.555 59.319C745.167 61.4796 742.486 64.3447 740.509 67.9143C738.533 71.4839 737.545 75.2883 737.545 79.3276Z" fill="#DBD700"/>
<path d="M666.28 7.04199H731.915V13.6646H702.414V107.085H695.498V13.6646H666.28V7.04199Z" fill="#DBD700"/>
<path d="M563.972 107.088V0H570.606V107.088H563.972ZM583.31 71.2983L608.999 107.088H601.236L578.652 74.9618L583.31 71.2983ZM568.348 87.0797L567.783 80.4571L601.518 50.8669L605.612 54.3896L568.348 87.0797Z" fill="#8B4CF4"/>
<path d="M521.514 51.9933L522.22 68.902L521.373 66.7884C522.596 63.4067 524.525 60.4946 527.16 58.0523C529.795 55.6099 532.712 53.7312 535.912 52.416C539.205 51.1009 542.357 50.4434 545.369 50.4434L545.086 56.925C540.852 56.925 536.994 57.8644 533.512 59.7431C530.124 61.6219 527.395 64.1582 525.325 67.352C523.349 70.452 522.361 73.9746 522.361 77.92V107.087H515.727V51.9933H521.514Z" fill="#8B4CF4"/>
<path d="M437.169 79.1867C437.169 73.8323 438.44 68.9476 440.98 64.5325C443.615 60.1175 447.144 56.6418 451.567 54.1055C456.084 51.4753 461.118 50.1602 466.67 50.1602C472.316 50.1602 477.35 51.4753 481.773 54.1055C486.196 56.6418 489.677 60.1175 492.218 64.5325C494.759 68.9476 496.029 73.8323 496.029 79.1867C496.029 84.5411 494.759 89.4259 492.218 93.8409C489.677 98.2559 486.149 101.779 481.632 104.409C477.209 106.945 472.222 108.213 466.67 108.213C461.024 108.213 455.99 106.992 451.567 104.55C447.144 102.013 443.615 98.5847 440.98 94.2636C438.44 89.8486 437.169 84.8229 437.169 79.1867ZM443.804 79.3276C443.804 83.6487 444.792 87.5941 446.768 91.1637C448.838 94.6394 451.567 97.4105 454.954 99.4771C458.436 101.544 462.294 102.577 466.529 102.577C470.763 102.577 474.574 101.544 477.962 99.4771C481.444 97.4105 484.173 94.6394 486.149 91.1637C488.219 87.5941 489.254 83.6487 489.254 79.3276C489.254 75.0065 488.219 71.1081 486.149 67.6325C484.173 64.0628 481.444 61.2447 477.962 59.1781C474.574 57.0176 470.763 55.9373 466.529 55.9373C462.2 55.9373 458.295 57.0645 454.813 59.319C451.426 61.4796 448.744 64.3447 446.768 67.9143C444.792 71.4839 443.804 75.2883 443.804 79.3276Z" fill="#8B4CF4"/>
<path d="M310.349 7.32495H318.253L351.423 97.7864L349.871 97.3636L370.761 41.0014L374.008 49.8784L349.871 111.736L310.349 7.32495ZM356.505 7.32495H363.421L397.862 97.7864L395.745 97.2227L429.339 7.32495H436.678L416.564 59.46L396.451 111.595L356.505 7.32495Z" fill="#8B4CF4"/>
<path d="M233.729 108.216C230.53 108.216 227.19 107.653 223.708 106.525C220.226 105.304 217.403 103.379 215.239 100.748L218.344 96.3802C220.226 98.3529 222.437 99.9499 224.978 101.171C227.613 102.298 230.389 102.862 233.306 102.862C235.47 102.862 237.494 102.58 239.376 102.016C241.352 101.359 242.951 100.279 244.175 98.7756C245.398 97.2726 246.01 95.253 246.01 92.7167C246.01 90.0865 245.257 88.0668 243.751 86.6577C242.34 85.2487 240.505 84.1214 238.246 83.276C236.082 82.3366 233.777 81.4912 231.33 80.7397C227.284 79.4246 223.943 77.6398 221.308 75.3853C218.768 73.1308 217.497 69.9369 217.497 65.8037C217.497 62.7977 218.203 60.1675 219.614 57.913C221.12 55.6585 223.143 53.9207 225.684 52.6995C228.225 51.3844 231.095 50.7268 234.294 50.7268C237.211 50.7268 240.081 51.1965 242.904 52.1359C245.821 53.0752 248.456 54.6722 250.809 56.9267L247.845 61.5765C246.339 59.5099 244.316 58.1009 241.775 57.3494C239.328 56.5979 237.164 56.1752 235.282 56.0812C233.682 56.0812 231.989 56.41 230.201 57.0676C228.507 57.7251 227.048 58.7115 225.825 60.0266C224.696 61.2478 224.131 62.8917 224.131 64.9583C224.131 67.1188 224.743 68.9036 225.966 70.3127C227.19 71.6278 228.742 72.7081 230.624 73.5535C232.6 74.399 234.623 75.1974 236.694 75.9489C239.423 76.7944 241.963 77.8277 244.316 79.0488C246.762 80.1761 248.739 81.726 250.244 83.6987C251.844 85.5775 252.644 88.1138 252.644 91.3076C252.644 94.5015 251.938 97.4135 250.526 100.044C249.115 102.58 246.998 104.6 244.175 106.103C241.446 107.512 237.964 108.216 233.729 108.216Z" fill="#8B4CF4"/>
<path d="M193.948 26.9101L190.701 24.092C192.677 22.2133 194.136 19.7709 195.077 16.7649C196.112 13.7589 196.3 10.612 195.641 7.32423L201.711 6.33789C202.276 8.87419 202.276 11.4575 201.711 14.0877C201.146 16.624 200.205 19.0194 198.888 21.2739C197.571 23.5284 195.924 25.4071 193.948 26.9101Z" fill="#8B4CF4"/>
<path d="M155.949 27.7554H162.725V52.6957H179.804V58.0501H162.725V107.085H155.949V58.0501H144.234V52.6957H155.949V27.7554Z" fill="#8B4CF4"/>
<path d="M105.657 108.213C99.9171 108.213 94.8356 106.945 90.4129 104.409C85.9902 101.873 82.5085 98.4438 79.9678 94.1227C77.5212 89.7077 76.2979 84.776 76.2979 79.3276C76.2979 73.9732 77.6153 69.0885 80.2501 64.6734C82.8849 60.2584 86.4136 56.7358 90.8364 54.1055C95.3532 51.4753 100.341 50.1602 105.798 50.1602C112.385 50.1602 117.89 52.0859 122.313 55.9373C126.83 59.7887 130.076 64.8143 132.052 71.0142L83.7788 89.6137L81.8027 84.8229L125.983 67.6325L124.571 69.6051C122.972 65.8476 120.525 62.6068 117.232 59.8826C114.032 57.1585 110.08 55.7964 105.375 55.7964C101.14 55.7964 97.3293 56.8297 93.9417 58.8963C90.5541 60.9629 87.8252 63.7341 85.755 67.2097C83.7788 70.6854 82.7908 74.6308 82.7908 79.0458C82.7908 83.179 83.7318 87.0305 85.6138 90.6001C87.5899 94.1697 90.3188 97.0348 93.8005 99.1953C97.2823 101.356 101.282 102.436 105.798 102.436C108.81 102.436 111.68 101.873 114.409 100.745C117.232 99.618 119.725 98.162 121.89 96.3772L125.277 101.168C122.642 103.235 119.584 104.925 116.102 106.241C112.715 107.556 109.233 108.213 105.657 108.213Z" fill="#8B4CF4"/>
<path d="M0 7.04199H6.91638V100.462H61.824V107.085H0V7.04199Z" fill="#8B4CF4"/>
</svg>
