<svg width="1200" height="379" viewBox="0 0 1200 379" fill="none" xmlns="http://www.w3.org/2000/svg">
<path d="M1125.39 306.403C1109.17 306.403 1094.81 302.812 1082.31 295.631C1069.81 288.449 1059.96 278.741 1052.78 266.506C1045.87 254.006 1042.41 240.042 1042.41 224.615C1042.41 209.455 1046.13 195.624 1053.58 183.123C1061.03 170.623 1071 160.648 1083.5 153.201C1096.27 145.754 1110.37 142.03 1125.79 142.03C1144.41 142.03 1159.97 147.483 1172.47 158.388C1185.24 169.293 1194.41 183.522 1200 201.077L1063.55 253.74L1057.97 240.175L1182.84 191.502L1178.85 197.087C1174.33 186.448 1167.42 177.272 1158.11 169.559C1149.07 161.845 1137.89 157.989 1124.6 157.989C1112.63 157.989 1101.86 160.914 1092.28 166.766C1082.71 172.617 1074.99 180.464 1069.14 190.305C1063.55 200.146 1060.76 211.317 1060.76 223.818C1060.76 235.52 1063.42 246.425 1068.74 256.532C1074.33 266.639 1082.04 274.752 1091.88 280.869C1101.72 286.987 1113.03 290.045 1125.79 290.045C1134.3 290.045 1142.42 288.449 1150.13 285.258C1158.11 282.066 1165.16 277.943 1171.27 272.89L1180.85 286.455C1173.4 292.306 1164.76 297.094 1154.92 300.817C1145.34 304.541 1135.5 306.403 1125.39 306.403Z" fill="#8B4CF4"/>
<path d="M943.798 147.217L945.793 195.092L943.399 189.108C946.857 179.533 952.31 171.288 959.757 164.372C967.204 157.457 975.449 152.137 984.493 148.414C993.802 144.69 1002.71 142.828 1011.22 142.828L1010.43 161.181C998.456 161.181 987.551 163.84 977.71 169.16C968.135 174.479 960.422 181.661 954.57 190.704C948.985 199.481 946.192 209.455 946.192 220.626V303.211H927.441V147.217H943.798Z" fill="#8B4CF4"/>
<path d="M705.396 224.216C705.396 209.056 708.987 195.225 716.168 182.724C723.615 170.224 733.589 160.383 746.09 153.201C758.857 145.754 773.087 142.03 788.779 142.03C804.738 142.03 818.967 145.754 831.468 153.201C843.969 160.383 853.81 170.224 860.991 182.724C868.173 195.225 871.763 209.056 871.763 224.216C871.763 239.377 868.173 253.208 860.991 265.709C853.81 278.209 843.836 288.183 831.069 295.631C818.568 302.812 804.472 306.403 788.779 306.403C772.821 306.403 758.591 302.945 746.09 296.03C733.589 288.848 723.615 279.14 716.168 266.905C708.987 254.405 705.396 240.175 705.396 224.216ZM724.147 224.615C724.147 236.85 726.94 248.021 732.525 258.128C738.377 267.969 746.09 275.816 755.665 281.667C765.506 287.518 776.411 290.444 788.38 290.444C800.349 290.444 811.121 287.518 820.696 281.667C830.537 275.816 838.25 267.969 843.836 258.128C849.687 248.021 852.613 236.85 852.613 224.615C852.613 212.381 849.687 201.343 843.836 191.502C838.25 181.395 830.537 173.415 820.696 167.564C811.121 161.446 800.349 158.388 788.38 158.388C776.145 158.388 765.107 161.579 755.266 167.963C745.691 174.08 738.111 182.192 732.525 192.299C726.94 202.407 724.147 213.179 724.147 224.615Z" fill="#8B4CF4"/>
<path d="M630.947 0H649.698V303.211H630.947V0Z" fill="#8B4CF4"/>
<path d="M493.096 306.402C478.201 306.402 464.237 302.546 451.205 294.832C438.172 286.853 428.597 276.613 422.479 264.112L425.671 257.33V378.215H406.92V146.019H423.676L425.671 197.087L422.08 185.517C428.996 173.016 439.103 162.776 452.402 154.797C465.7 146.551 480.196 142.429 495.888 142.429C510.783 142.429 524.215 146.019 536.184 153.201C548.152 160.382 557.595 170.223 564.51 182.724C571.691 194.959 575.282 209.055 575.282 225.014C575.282 240.706 571.558 254.803 564.111 267.304C556.93 279.539 547.089 289.114 534.588 296.029C522.353 302.944 508.522 306.402 493.096 306.402ZM489.904 290.843C502.139 290.843 513.177 287.917 523.018 282.065C533.125 276.214 541.104 268.368 546.956 258.527C553.073 248.42 556.132 237.249 556.132 225.014C556.132 212.513 553.206 201.342 547.355 191.501C541.503 181.394 533.657 173.415 523.816 167.563C514.241 161.712 503.336 158.786 491.101 158.786C479.398 158.786 468.759 161.446 459.184 166.765C449.609 172.085 441.896 179.266 436.044 188.309C430.193 197.353 426.735 207.593 425.671 219.029V231.796C426.469 242.701 429.794 252.675 435.645 261.718C441.763 270.762 449.476 277.943 458.785 283.262C468.36 288.316 478.733 290.843 489.904 290.843Z" fill="#8B4CF4"/>
<path d="M291.112 214.642L337.391 147.217H356.941L299.091 228.605L291.112 214.642ZM360.132 303.211H337.79L220.895 147.217H244.433L360.132 303.211ZM290.713 236.186L242.837 303.211H222.889L280.34 223.818L290.713 236.186Z" fill="#8B4CF4"/>
<path d="M0 19.9487H174.745V38.7H19.5491V151.207H159.186V169.959H19.5491V284.461H180.331V303.212H0V19.9487Z" fill="#8B4CF4"/>
</svg>
