<svg width="50" height="50" viewBox="0 0 50 50" fill="none" xmlns="http://www.w3.org/2000/svg">
<rect x="-0.75" y="0.75" width="48.5" height="48.5" rx="24.25" transform="matrix(-1 0 0 1 48.5 0)" stroke="#DBD700" stroke-width="1.5"/>
<path d="M16.25 22.2251V29.3751C16.25 30.0381 16.5134 30.674 16.9822 31.1429C17.4511 31.6117 18.087 31.8751 18.75 31.8751H31.25C31.913 31.8751 32.5489 31.6117 33.0178 31.1429C33.4866 30.674 33.75 30.0381 33.75 29.3751V22.2251L26.31 26.8026C25.916 27.045 25.4626 27.1733 25 27.1733C24.5374 27.1733 24.084 27.045 23.69 26.8026L16.25 22.2251Z" fill="#F1EEE4"/>
<path d="M33.75 20.7567V20.625C33.75 19.962 33.4866 19.3261 33.0178 18.8572C32.5489 18.3884 31.913 18.125 31.25 18.125H18.75C18.087 18.125 17.4511 18.3884 16.9822 18.8572C16.5134 19.3261 16.25 19.962 16.25 20.625V20.7567L24.345 25.7383C24.542 25.8595 24.7687 25.9237 25 25.9237C25.2313 25.9237 25.458 25.8595 25.655 25.7383L33.75 20.7567Z" fill="#F1EEE4"/>
</svg>
