<svg width="1800" height="225" viewBox="0 0 1800 225" fill="none" xmlns="http://www.w3.org/2000/svg">
<path d="M1762.02 217.916C1755.6 217.916 1748.89 216.782 1741.9 214.515C1734.91 212.059 1729.25 208.186 1724.9 202.896L1731.13 194.11C1734.91 198.078 1739.35 201.29 1744.45 203.746C1749.74 206.013 1755.32 207.147 1761.17 207.147C1765.52 207.147 1769.58 206.58 1773.36 205.446C1777.33 204.124 1780.54 201.951 1783 198.928C1785.45 195.905 1786.68 191.843 1786.68 186.742C1786.68 181.452 1785.17 177.39 1782.15 174.556C1779.31 171.722 1775.63 169.455 1771.09 167.755C1766.75 165.865 1762.12 164.165 1757.21 162.654C1749.08 160.009 1742.38 156.419 1737.09 151.885C1731.98 147.35 1729.43 140.927 1729.43 132.614C1729.43 126.568 1730.85 121.278 1733.69 116.744C1736.71 112.209 1740.77 108.714 1745.87 106.258C1750.97 103.613 1756.73 102.291 1763.16 102.291C1769.01 102.291 1774.78 103.235 1780.45 105.124C1786.3 107.014 1791.59 110.226 1796.32 114.76L1790.36 124.112C1787.34 119.955 1783.28 117.122 1778.18 115.61C1773.27 114.099 1768.92 113.248 1765.14 113.06C1761.93 113.06 1758.53 113.721 1754.94 115.043C1751.54 116.366 1748.61 118.35 1746.15 120.995C1743.89 123.451 1742.75 126.757 1742.75 130.913C1742.75 135.259 1743.98 138.848 1746.44 141.682C1748.89 144.327 1752.01 146.5 1755.79 148.2C1759.76 149.901 1763.82 151.507 1767.98 153.018C1773.45 154.719 1778.56 156.797 1783.28 159.253C1788.19 161.52 1792.16 164.637 1795.18 168.605C1798.39 172.384 1800 177.485 1800 183.908C1800 190.332 1798.58 196.189 1795.75 201.479C1792.91 206.58 1788.66 210.642 1783 213.665C1777.52 216.499 1770.53 217.916 1762.02 217.916Z" fill="#DBD700"/>
<path d="M1608.09 215.648V0.267578H1621.41V215.648H1608.09ZM1646.92 143.665L1698.5 215.648H1682.91L1637.57 151.034L1646.92 143.665ZM1616.88 175.406L1615.75 162.086L1683.48 102.573L1691.7 109.658L1616.88 175.406Z" fill="#DBD700"/>
<path d="M1522.85 104.841L1524.27 138.848L1522.57 134.597C1525.02 127.796 1528.9 121.939 1534.19 117.027C1539.48 112.115 1545.33 108.336 1551.76 105.691C1558.37 103.046 1564.7 101.724 1570.74 101.724L1570.18 114.76C1561.67 114.76 1553.93 116.649 1546.94 120.428C1540.14 124.206 1534.66 129.307 1530.5 135.731C1526.53 141.966 1524.55 149.051 1524.55 156.986V215.648H1511.23V104.841H1522.85Z" fill="#DBD700"/>
<path d="M1353.5 159.537C1353.5 148.768 1356.05 138.943 1361.16 130.064C1366.45 121.184 1373.53 114.193 1382.41 109.092C1391.48 103.802 1401.59 101.157 1412.73 101.157C1424.07 101.157 1434.18 103.802 1443.06 109.092C1451.94 114.193 1458.93 121.184 1464.03 130.064C1469.13 138.943 1471.68 148.768 1471.68 159.537C1471.68 170.306 1469.13 180.13 1464.03 189.01C1458.93 197.889 1451.84 204.974 1442.77 210.264C1433.89 215.365 1423.88 217.916 1412.73 217.916C1401.4 217.916 1391.29 215.46 1382.41 210.548C1373.53 205.447 1366.45 198.551 1361.16 189.86C1356.05 180.98 1353.5 170.872 1353.5 159.537ZM1366.82 159.82C1366.82 168.511 1368.81 176.446 1372.78 183.625C1376.93 190.616 1382.41 196.189 1389.21 200.345C1396.2 204.502 1403.95 206.58 1412.45 206.58C1420.95 206.58 1428.6 204.502 1435.41 200.345C1442.4 196.189 1447.87 190.616 1451.84 183.625C1456 176.446 1458.08 168.511 1458.08 159.82C1458.08 151.129 1456 143.289 1451.84 136.298C1447.87 129.119 1442.4 123.451 1435.41 119.295C1428.6 114.949 1420.95 112.776 1412.45 112.776C1403.76 112.776 1395.92 115.044 1388.93 119.578C1382.13 123.923 1376.74 129.686 1372.78 136.865C1368.81 144.044 1366.82 151.696 1366.82 159.82Z" fill="#DBD700"/>
<path d="M1098.88 15.0049H1114.75L1181.35 196.944L1178.23 196.094L1220.17 82.7363L1226.69 100.59L1178.23 225L1098.88 15.0049ZM1191.55 15.0049H1205.43L1274.58 196.944L1270.33 195.811L1337.78 15.0049H1352.52L1271.75 224.717L1191.55 15.0049Z" fill="#DBD700"/>
<path d="M909.526 217.915C899.135 217.915 889.688 215.459 881.186 210.547C872.684 205.445 865.883 198.455 860.782 189.575C855.87 180.696 853.414 170.682 853.414 159.536C853.414 147.633 855.964 137.336 861.065 128.645C866.166 119.955 873.062 113.248 881.753 108.524C890.633 103.801 900.363 101.44 910.943 101.44C921.523 101.44 931.536 104.179 940.983 109.658C950.618 115.137 957.608 122.316 961.954 131.196L959.687 137.431V0.267578H973.006V215.648H959.403V181.64L962.237 187.875C957.514 196.755 950.429 204.029 940.983 209.696C931.536 215.175 921.051 217.915 909.526 217.915ZM912.927 206.296C921.428 206.296 929.08 204.501 935.881 200.911C942.683 197.133 948.162 192.126 952.318 185.891C956.475 179.468 958.837 172.288 959.403 164.353V150.183C958.081 143.004 955.152 136.581 950.618 130.913C946.084 125.245 940.605 120.805 934.181 117.593C927.758 114.192 920.673 112.492 912.927 112.492C904.425 112.492 896.679 114.476 889.688 118.443C882.698 122.411 877.124 127.89 872.968 134.88C868.811 141.871 866.733 149.995 866.733 159.252C866.733 167.943 868.811 175.878 872.968 183.057C877.124 190.048 882.698 195.716 889.688 200.061C896.868 204.217 904.614 206.296 912.927 206.296Z" fill="#8B4CF4"/>
<path d="M774.26 217.916C762.735 217.916 752.533 215.365 743.653 210.264C734.774 205.163 727.783 198.267 722.682 189.576C717.77 180.697 715.314 170.778 715.314 159.82C715.314 149.051 717.959 139.227 723.249 130.347C728.539 121.467 735.624 114.382 744.504 109.092C753.572 103.802 763.586 101.157 774.543 101.157C787.769 101.157 798.821 105.03 807.701 112.776C816.769 120.523 823.287 130.63 827.255 143.1L730.334 180.508L726.366 170.872L815.069 136.298L812.235 140.266C809.023 132.709 804.111 126.19 797.498 120.711C791.075 115.233 783.14 112.493 773.693 112.493C765.191 112.493 757.54 114.571 750.738 118.728C743.937 122.884 738.458 128.458 734.301 135.448C730.334 142.438 728.35 150.373 728.35 159.253C728.35 167.566 730.239 175.312 734.018 182.492C737.986 189.671 743.465 195.433 750.455 199.779C757.445 204.124 765.475 206.297 774.543 206.297C780.589 206.297 786.352 205.163 791.831 202.896C797.499 200.629 802.505 197.7 806.851 194.111L813.652 203.746C808.362 207.903 802.222 211.303 795.231 213.948C788.43 216.593 781.439 217.916 774.26 217.916Z" fill="#8B4CF4"/>
<path d="M644.975 56.0957H658.578V106.257H692.869V117.026H658.578V215.647H644.975V117.026H621.454V106.257H644.975V56.0957Z" fill="#8B4CF4"/>
<path d="M596.908 204.879C591.807 209.036 586.045 212.248 579.621 214.515C573.197 216.782 566.49 217.916 559.5 217.916C548.164 217.916 538.056 215.46 529.177 210.547C520.297 205.446 513.306 198.55 508.205 189.86C503.104 181.169 500.554 171.25 500.554 160.103C500.554 148.956 503.199 139.037 508.489 130.347C513.779 121.656 520.769 114.854 529.46 109.942C538.34 104.841 547.975 102.291 558.366 102.291C566.112 102.291 573.292 103.424 579.904 105.691C586.517 107.958 592.279 111.17 597.191 115.327L590.107 124.395C586.139 121.184 581.51 118.538 576.22 116.46C570.93 114.382 565.262 113.343 559.216 113.343C550.904 113.343 543.252 115.421 536.261 119.578C529.46 123.734 523.981 129.402 519.825 136.581C515.857 143.572 513.873 151.412 513.873 160.103C513.873 168.605 515.857 176.446 519.825 183.625C523.981 190.615 529.554 196.189 536.545 200.345C543.724 204.502 551.659 206.58 560.35 206.58C566.018 206.58 571.308 205.73 576.22 204.029C581.132 202.14 585.572 199.684 589.54 196.661L596.908 204.879Z" fill="#8B4CF4"/>
<path d="M421.4 217.916C409.876 217.916 399.673 215.365 390.794 210.264C381.914 205.163 374.923 198.267 369.822 189.576C364.91 180.697 362.454 170.778 362.454 159.82C362.454 149.051 365.099 139.227 370.389 130.347C375.679 121.467 382.764 114.382 391.644 109.092C400.712 103.802 410.726 101.157 421.684 101.157C434.909 101.157 445.961 105.03 454.841 112.776C463.909 120.523 470.428 130.63 474.395 143.1L377.474 180.508L373.507 170.872L462.209 136.298L459.375 140.266C456.163 132.709 451.251 126.19 444.639 120.711C438.215 115.233 430.28 112.493 420.833 112.493C412.332 112.493 404.68 114.571 397.878 118.728C391.077 122.884 385.598 128.458 381.442 135.448C377.474 142.438 375.49 150.373 375.49 159.253C375.49 167.566 377.38 175.312 381.158 182.492C385.126 189.671 390.605 195.433 397.595 199.779C404.585 204.124 412.615 206.297 421.684 206.297C427.729 206.297 433.492 205.163 438.971 202.896C444.639 200.629 449.645 197.7 453.991 194.111L460.792 203.746C455.502 207.903 449.362 211.303 442.371 213.948C435.57 216.593 428.58 217.916 421.4 217.916Z" fill="#8B4CF4"/>
<path d="M309.57 0.267578H322.889V215.648H309.57V0.267578Z" fill="#8B4CF4"/>
<path d="M219.648 217.916C208.123 217.916 197.921 215.365 189.041 210.264C180.161 205.163 173.171 198.267 168.07 189.576C163.158 180.697 160.701 170.778 160.701 159.82C160.701 149.051 163.346 139.227 168.636 130.347C173.927 121.467 181.011 114.382 189.891 109.092C198.96 103.802 208.973 101.157 219.931 101.157C233.156 101.157 244.208 105.03 253.088 112.776C262.157 120.523 268.675 130.63 272.642 143.1L175.721 180.508L171.754 170.872L260.456 136.298L257.622 140.266C254.411 132.709 249.498 126.19 242.886 120.711C236.462 115.233 228.527 112.493 219.081 112.493C210.579 112.493 202.927 114.571 196.126 118.728C189.324 122.884 183.845 128.458 179.689 135.448C175.721 142.438 173.738 150.373 173.738 159.253C173.738 167.566 175.627 175.312 179.405 182.492C183.373 189.671 188.852 195.433 195.842 199.779C202.833 204.124 210.862 206.297 219.931 206.297C225.977 206.297 231.739 205.163 237.218 202.896C242.886 200.629 247.893 197.7 252.238 194.111L259.039 203.746C253.749 207.903 247.609 211.303 240.619 213.948C233.817 216.593 226.827 217.916 219.648 217.916Z" fill="#8B4CF4"/>
<path d="M114.208 37.1099C108.352 34.2759 101.172 31.6309 92.6704 29.1748C84.1685 26.7187 75.6667 25.4907 67.1648 25.4907C53.9397 25.4907 43.3597 28.7969 35.4246 35.4095C27.4895 42.022 23.522 50.335 23.522 60.3482C23.522 67.9054 25.7892 74.2346 30.3235 79.3357C34.8578 84.2479 40.8091 88.4988 48.1774 92.0885C55.5456 95.4892 63.3862 98.7955 71.6992 102.007C78.3117 104.463 84.8298 107.203 91.2534 110.226C97.866 113.249 103.817 116.933 109.107 121.278C114.397 125.624 118.554 131.008 121.577 137.432C124.788 143.855 126.394 151.79 126.394 161.237C126.394 172.384 123.749 182.303 118.459 190.993C113.169 199.495 105.801 206.108 96.3545 210.831C86.908 215.554 75.9501 217.916 63.4807 217.916C53.4674 217.916 44.3043 216.688 35.9914 214.232C27.8674 211.776 20.6881 208.942 14.4534 205.73C8.40763 202.329 3.58991 199.495 0.000244141 197.228L6.51833 185.892C10.6748 188.915 15.6814 191.938 21.5383 194.961C27.584 197.984 34.1021 200.534 41.0925 202.612C48.0829 204.691 55.0733 205.73 62.0637 205.73C70.1877 205.73 78.0283 204.124 85.5855 200.912C93.3316 197.7 99.6608 192.883 104.573 186.459C109.674 179.846 112.225 171.533 112.225 161.52C112.225 151.885 109.863 144.139 105.14 138.282C100.416 132.236 94.3707 127.324 87.0025 123.545C79.6342 119.767 71.7936 116.366 63.4807 113.343C57.0571 110.887 50.6335 108.336 44.2098 105.691C37.7862 102.857 31.9294 99.5512 26.6394 95.7726C21.3493 91.8051 17.0984 87.0818 13.8866 81.6029C10.8637 76.1239 9.35227 69.5113 9.35227 61.7652C9.35227 52.1298 11.8084 43.7224 16.7205 36.5431C21.6327 29.3637 28.2453 23.7903 36.5582 19.8228C45.06 15.6663 54.6955 13.4936 65.4645 13.3047C74.911 13.3047 84.4519 14.5327 94.0873 16.9888C103.912 19.4449 112.414 22.5623 119.593 26.3409L114.208 37.1099Z" fill="#8B4CF4"/>
</svg>
